<?xml version="1.0" encoding="UTF-8" standalone="no"?>
<svg
   viewBox="364.373 836.707 336.09949 81.961256"
   height="519.0871"
   width="517.77515"
   id="svg2"
   version="1.1"
   sodipodi:docname="zmcircles.svg"
   inkscape:version="1.1.2 (b8e25be833, 2022-02-05)"
   xmlns:inkscape="http://www.inkscape.org/namespaces/inkscape"
   xmlns:sodipodi="http://sodipodi.sourceforge.net/DTD/sodipodi-0.dtd"
   xmlns="http://www.w3.org/2000/svg"
   xmlns:svg="http://www.w3.org/2000/svg">
  <sodipodi:namedview
     id="namedview36"
     pagecolor="#ffffff"
     bordercolor="#666666"
     borderopacity="1.0"
     inkscape:pageshadow="2"
     inkscape:pageopacity="0.0"
     inkscape:pagecheckerboard="0"
     showgrid="false"
     inkscape:zoom="0.3995"
     inkscape:cx="1005.0063"
     inkscape:cy="733.41677"
     inkscape:window-width="1862"
     inkscape:window-height="985"
     inkscape:window-x="-8"
     inkscape:window-y="-8"
     inkscape:window-maximized="1"
     inkscape:current-layer="svg2"
     fit-margin-left="10"
     fit-margin-right="10"
     fit-margin-top="10"
     fit-margin-bottom="10" />
  <defs
     id="defs6">
    <clipPath
       id="clipPath24"
       clipPathUnits="userSpaceOnUse">
      <path
         id="path22"
         d="M 0,1500 H 1500 V 0 H 0 Z" />
    </clipPath>
  </defs>
  <g
     transform="matrix(1.3333333,0,0,-1.3333333,534.94262,721.59597)"
     id="g54">
    <path
       id="path56"
       style="fill:#4f036d;fill-opacity:1;fill-rule:nonzero;stroke:none"
       d="m 0,0 c -3.191,0 -6.334,-0.118 -9.453,-0.378 -3.333,-0.26 -6.642,-0.662 -9.903,-1.206 -3.522,-0.567 -6.995,-1.299 -10.398,-2.174 h -0.024 c -2.364,-0.614 -4.703,-1.3 -7.019,-2.056 -7.847,-2.552 -15.339,-5.885 -22.381,-9.95 2.765,-0.732 5.388,-1.796 7.822,-3.166 0.804,-0.426 1.584,-0.899 2.341,-1.418 1.417,-0.922 2.765,-1.938 4.041,-3.073 1.464,-1.3 2.835,-2.717 4.041,-4.23 3.284,1.489 6.664,2.789 10.115,3.9 2.812,0.921 5.696,1.701 8.603,2.363 0.803,0.189 1.63,0.354 2.433,0.52 3.38,0.685 6.808,1.181 10.304,1.512 1.466,0.142 2.931,0.237 4.397,0.308 1.678,0.094 3.379,0.141 5.081,0.141 6.736,0 13.33,-0.662 19.71,-1.938 16.543,-3.309 31.646,-10.682 44.171,-21.057 22.287,-18.434 36.491,-46.274 36.491,-77.377 0,-55.349 -45.023,-100.371 -100.372,-100.371 -31.055,0 -58.871,14.204 -77.305,36.443 -10.399,12.549 -17.796,27.651 -21.105,44.218 -1.277,6.381 -1.938,12.975 -1.938,19.71 0,1.702 0.048,3.38 0.142,5.058 0.047,1.489 0.165,2.955 0.307,4.42 0.331,3.498 0.827,6.924 1.513,10.304 0.212,1.111 0.472,2.221 0.733,3.332 0.614,2.624 1.322,5.2 2.15,7.728 1.206,3.735 2.624,7.398 4.277,10.919 -1.536,1.253 -2.977,2.671 -4.253,4.183 -1.182,1.323 -2.246,2.765 -3.167,4.254 -0.615,0.946 -1.181,1.914 -1.679,2.931 -1.11,2.198 -2.008,4.538 -2.646,6.972 -4.113,-6.996 -7.516,-14.464 -10.139,-22.287 -0.897,-2.647 -1.678,-5.317 -2.387,-8.035 v -0.024 c -0.874,-3.427 -1.607,-6.901 -2.174,-10.422 -0.544,-3.238 -0.945,-6.546 -1.205,-9.879 -0.261,-3.12 -0.379,-6.263 -0.379,-9.454 0,-65.771 53.507,-119.278 119.255,-119.278 65.772,0 119.279,53.507 119.279,119.278 C 119.279,-53.506 65.772,0 0,0" />
  </g>
  <g
     transform="matrix(1.3333333,0,0,-1.3333333,620.11715,777.46557)"
     id="g58">
    <path
       id="path60"
       style="fill:#cc2d58;fill-opacity:1;fill-rule:nonzero;stroke:none"
       d="m 0,0 c -16.826,23.184 -43.226,38.972 -73.334,41.524 -3.333,-0.26 -6.641,-0.662 -9.903,-1.205 -3.522,-0.568 -6.995,-1.3 -10.398,-2.174 h -0.024 c -2.364,-0.615 -4.703,-1.3 -7.019,-2.057 -1.513,1.111 -3.096,2.128 -4.751,3.049 -10.256,-2.434 -19.923,-6.452 -28.714,-11.77 0.567,0.024 1.134,0.048 1.725,0.048 3.238,0 6.381,-0.425 9.359,-1.277 2.765,-0.732 5.388,-1.796 7.823,-3.166 0.803,-0.426 1.583,-0.898 2.34,-1.418 1.417,-0.922 2.765,-1.938 4.041,-3.073 2.504,0.875 5.081,1.631 7.704,2.245 3.214,0.78 6.522,1.371 9.879,1.749 1.229,0.142 2.458,0.237 3.687,0.331 1.867,0.118 3.733,0.189 5.625,0.189 2.907,0 5.789,-0.141 8.601,-0.449 1.845,-0.189 3.664,-0.449 5.484,-0.756 14.535,-2.505 27.793,-8.863 38.664,-17.985 18.057,-15.102 29.542,-37.79 29.542,-63.101 0,-45.377 -36.916,-82.292 -82.291,-82.292 -25.312,0 -47.977,11.485 -63.078,29.541 -9.099,10.872 -15.456,24.107 -17.962,38.618 -0.331,1.819 -0.591,3.663 -0.78,5.53 -0.307,2.812 -0.449,5.696 -0.449,8.603 0,2.245 0.095,4.466 0.26,6.664 0.072,0.875 0.166,1.773 0.261,2.647 0.377,3.356 0.968,6.665 1.748,9.879 0.709,2.954 1.583,5.861 2.6,8.673 -1.182,1.324 -2.246,2.766 -3.167,4.254 -0.615,0.946 -1.181,1.915 -1.679,2.931 -1.11,2.198 -2.008,4.538 -2.646,6.972 -0.78,2.883 -1.181,5.932 -1.181,9.075 0,0.709 0.023,1.418 0.07,2.127 -5.435,-8.721 -9.571,-18.339 -12.124,-28.549 0.945,-1.702 1.985,-3.356 3.096,-4.94 -0.897,-2.646 -1.677,-5.317 -2.387,-8.035 v -0.024 c -0.874,-3.426 -1.606,-6.9 -2.174,-10.422 -0.544,-3.238 -0.945,-6.546 -1.205,-9.879 2.551,-30.133 18.363,-56.555 41.571,-73.382 16.661,-12.077 37.128,-19.19 59.226,-19.19 55.798,0 101.198,45.4 101.198,101.199 C 19.238,-37.176 12.101,-16.662 0,0" />
  </g>
  <g
     transform="matrix(1.3333333,0,0,-1.3333333,487.58169,919.73943)"
     id="g62">
    <path
       id="path64"
       style="fill:#ed4e4a;fill-opacity:1;fill-rule:nonzero;stroke:none"
       d="m 0,0 c -19.427,0 -36.893,8.603 -48.78,22.216 -6.664,7.61 -11.58,16.779 -14.085,26.895 -0.402,1.465 -0.71,2.93 -0.945,4.442 -0.214,1.04 -0.379,2.104 -0.497,3.167 -0.355,2.671 -0.52,5.365 -0.52,8.13 0,2.978 0.212,5.909 0.614,8.768 0.261,2.009 0.615,3.971 1.088,5.909 -0.615,0.945 -1.182,1.914 -1.679,2.93 -1.11,2.198 -2.008,4.538 -2.646,6.972 -0.78,2.884 -1.182,5.932 -1.182,9.075 0,0.709 0.023,1.419 0.071,2.128 1.064,18.079 15.668,32.566 33.819,33.441 0.568,0.024 1.135,0.047 1.725,0.047 3.239,0 6.382,-0.425 9.359,-1.276 2.765,-0.733 5.388,-1.796 7.823,-3.167 0.803,-0.425 1.583,-0.898 2.34,-1.418 1.559,0.354 3.12,0.638 4.727,0.827 2.86,0.402 5.79,0.615 8.768,0.615 2.765,0 5.458,-0.166 8.13,-0.52 1.488,-0.166 2.93,-0.402 4.372,-0.709 1.087,-0.189 2.174,-0.449 3.237,-0.733 C 25.831,125.234 35,120.318 42.611,113.677 56.247,101.79 64.85,84.301 64.85,64.85 64.85,29.093 35.757,0 0,0 m 70.191,110.51 c -4.183,6.405 -9.24,12.219 -14.96,17.253 -10.895,9.571 -24.295,16.378 -39.066,19.261 -3.522,-0.567 -6.995,-1.3 -10.399,-2.174 H 5.742 c -2.363,-0.615 -4.702,-1.3 -7.018,-2.056 -1.513,1.111 -3.096,2.127 -4.751,3.048 -1.347,0.78 -2.718,1.513 -4.136,2.151 -37.53,-4.561 -67.498,-34.08 -72.744,-71.397 0.639,-1.56 1.394,-3.049 2.222,-4.514 0.945,-1.701 1.985,-3.356 3.096,-4.939 -0.898,-2.647 -1.678,-5.318 -2.388,-8.036 v -0.023 c -0.873,-3.427 -1.606,-6.901 -2.174,-10.423 2.884,-14.771 9.69,-28.147 19.261,-39.042 5.034,-5.743 10.825,-10.777 17.254,-14.96 13.116,-8.579 28.809,-13.566 45.636,-13.566 46.18,0 83.757,37.578 83.757,83.757 0,16.828 -4.987,32.52 -13.566,45.66" />
  </g>
  <g
     transform="matrix(1.3333333,0,0,-1.3333333,465.71156,875.9701)"
     id="g66">
    <path
       id="path68"
       style="fill:#fc945e;fill-opacity:1;fill-rule:nonzero;stroke:none"
       d="m 0,0 c -13.258,0 -25.287,5.365 -34.032,14.038 -3.899,3.829 -7.137,8.319 -9.548,13.306 -1.016,2.056 -1.867,4.207 -2.576,6.428 -0.733,2.269 -1.276,4.632 -1.655,7.019 -0.401,2.482 -0.613,5.034 -0.613,7.634 0,0.402 0,0.803 0.023,1.205 -1.111,2.198 -2.008,4.538 -2.646,6.972 -0.781,2.884 -1.182,5.932 -1.182,9.075 0,0.709 0.023,1.419 0.07,2.128 1.064,18.079 15.669,32.566 33.82,33.441 0.568,0.024 1.134,0.047 1.725,0.047 3.238,0 6.382,-0.425 9.359,-1.276 2.765,-0.733 5.388,-1.796 7.823,-3.167 2.41,0 4.75,-0.213 7.067,-0.591 2.386,-0.378 4.75,-0.922 7.018,-1.654 2.222,-0.709 4.396,-1.584 6.452,-2.576 C 26.635,89.334 31.551,85.648 35.64,81.181 43.581,72.555 48.426,61.045 48.426,48.425 48.426,21.719 26.707,0 0,0 m 59.013,80.85 c -3.001,5.459 -6.735,10.423 -11.084,14.818 -0.354,0.379 -0.708,0.733 -1.087,1.064 -6.948,6.759 -15.338,12.029 -24.673,15.291 h -0.024 c -2.363,-0.615 -4.703,-1.3 -7.019,-2.057 -1.512,1.112 -3.096,2.128 -4.751,3.049 -1.346,0.78 -2.853,0.827 -4.271,1.466 0.473,0.047 -3.788,-0.828 -3.315,-0.78 -0.733,0.094 1.625,1.211 0.869,1.258 -1.773,0.166 -1.838,0.822 -3.658,0.822 -37.128,0 -67.331,-30.228 -67.331,-67.356 0,-0.969 0.023,-1.938 0.07,-2.907 0.047,-1.583 -0.26,4.467 -0.07,2.907 0.117,0.993 0.685,-5.648 0.827,-4.656 0.638,-1.56 1.394,-3.049 2.222,-4.514 0.945,-1.701 1.984,-3.356 3.096,-4.939 -0.898,-2.647 -1.678,-5.318 -2.388,-8.036 v -0.023 c 3.238,-9.335 8.508,-17.749 15.291,-24.697 0.355,-0.378 0.709,-0.757 1.088,-1.111 4.395,-4.325 9.358,-8.059 14.818,-11.06 9.595,-5.295 20.632,-8.296 32.377,-8.296 37.128,0 67.332,30.204 67.332,67.332 0,11.746 -3.025,22.806 -8.319,32.425" />
  </g>
  <g
     transform="matrix(1.3333333,0,0,-1.3333333,513.23089,767.72863)"
     id="g70">
    <path
       id="path72"
       style="fill:#fcde95;fill-opacity:1;fill-rule:nonzero;stroke:none"
       d="m 0,0 c -4.089,4.467 -9.004,8.153 -14.534,10.848 -3.451,-1.111 -6.831,-2.411 -10.115,-3.9 5.009,-6.121 8.011,-13.943 8.011,-22.452 0,-19.639 -15.976,-35.615 -35.615,-35.615 -8.603,0 -16.52,3.072 -22.689,8.201 -1.653,-3.522 -3.072,-7.185 -4.278,-10.919 2.411,-4.987 5.649,-9.477 9.548,-13.306 5.484,-1.89 11.321,-2.883 17.419,-2.883 30.062,0 54.522,24.461 54.522,54.522 C 2.269,-10.115 1.489,-4.916 0,0 m -52.253,-51.119 c -8.603,0 -16.52,3.072 -22.689,8.201 -1.536,1.252 -2.977,2.67 -4.253,4.183 -1.182,1.323 -2.246,2.765 -3.167,4.254 -0.615,0.945 -1.182,1.914 -1.679,2.93 -1.11,2.198 -2.008,4.538 -2.646,6.972 -0.78,2.884 -1.182,5.932 -1.182,9.075 0,0.709 0.023,1.419 0.071,2.128 1.064,18.079 15.668,32.566 33.819,33.441 0.568,0.024 1.135,0.047 1.726,0.047 3.238,0 6.381,-0.425 9.358,-1.276 2.765,-0.733 5.388,-1.796 7.823,-3.167 0.803,-0.425 1.584,-0.898 2.341,-1.418 1.417,-0.922 2.764,-1.938 4.041,-3.072 1.464,-1.3 2.835,-2.718 4.041,-4.231 5.009,-6.121 8.011,-13.943 8.011,-22.452 0,-19.639 -15.976,-35.615 -35.615,-35.615 M 0,0 c -1.371,4.703 -3.403,9.146 -5.931,13.211 -0.261,0.426 -0.521,0.851 -0.804,1.253 -0.213,0.354 -0.45,0.709 -0.685,1.04 -3.592,5.152 -8.012,9.642 -13.093,13.281 -1.513,1.111 -3.096,2.128 -4.751,3.049 -1.347,0.78 -2.718,1.513 -4.136,2.151 -0.284,0.142 -0.567,0.26 -0.85,0.378 -6.736,3.002 -14.181,4.656 -22.003,4.656 -30.063,0 -54.522,-24.461 -54.522,-54.523 0,-7.113 1.37,-13.92 3.875,-20.159 0.213,-0.591 0.473,-1.182 0.757,-1.749 0.638,-1.56 1.394,-3.049 2.221,-4.514 0.945,-1.701 1.985,-3.356 3.096,-4.939 3.568,-5.058 7.988,-9.501 13.022,-13.07 0.236,-0.189 0.496,-0.354 0.757,-0.52 0.543,-0.401 1.11,-0.756 1.678,-1.11 3.639,-2.316 7.562,-4.207 11.697,-5.578 5.484,-1.89 11.321,-2.883 17.419,-2.883 30.062,0 54.522,24.461 54.522,54.522 C 2.269,-10.115 1.489,-4.916 0,0 m 0,0 c -4.089,4.467 -9.004,8.153 -14.534,10.848 -3.451,-1.111 -6.831,-2.411 -10.115,-3.9 5.009,-6.121 8.011,-13.943 8.011,-22.452 0,-19.639 -15.976,-35.615 -35.615,-35.615 -8.603,0 -16.52,3.072 -22.689,8.201 -1.653,-3.522 -3.072,-7.185 -4.278,-10.919 2.411,-4.987 5.649,-9.477 9.548,-13.306 5.484,-1.89 11.321,-2.883 17.419,-2.883 30.062,0 54.522,24.461 54.522,54.522 C 2.269,-10.115 1.489,-4.916 0,0" />
  </g>
</svg>
